<svg width="40" height="40" viewBox="0 0 40 40" fill="none" xmlns="http://www.w3.org/2000/svg">
<g clip-path="url(#clip0_674_2554)">
<path fill-rule="evenodd" clip-rule="evenodd" d="M5.88565 18.999C14.6711 15.1713 20.5294 12.6479 23.4607 11.4287C31.8299 7.94763 33.569 7.34293 34.7025 7.32297C34.9518 7.31858 35.5092 7.38036 35.8703 7.67334C36.1751 7.92074 36.259 8.25493 36.2992 8.48948C36.3393 8.72403 36.3893 9.25836 36.3496 9.67586C35.896 14.4412 33.9336 26.0053 32.9352 31.3425C32.5128 33.6009 31.681 34.3581 30.8757 34.4322C29.1256 34.5933 27.7966 33.2756 26.1016 32.1645C23.4492 30.4258 21.9507 29.3435 19.3761 27.6469C16.4007 25.6861 18.3295 24.6084 20.0252 22.8472C20.469 22.3863 28.1799 15.3726 28.3292 14.7364C28.3478 14.6568 28.3652 14.3602 28.1889 14.2036C28.0127 14.0469 27.7526 14.1005 27.565 14.1431C27.2989 14.2035 23.0617 17.0041 14.8532 22.5451C13.6504 23.371 12.561 23.7734 11.585 23.7523C10.5089 23.7291 8.43908 23.1439 6.90036 22.6437C5.01305 22.0302 3.51306 21.7059 3.64367 20.664C3.7117 20.1213 4.45903 19.5663 5.88565 18.999Z" fill="white"/>
</g>
<defs>
<clipPath id="clip0_674_2554">
<rect width="40" height="40" fill="white"/>
</clipPath>
</defs>
</svg>
