<svg width="40" height="40" viewBox="0 0 40 40" fill="none" xmlns="http://www.w3.org/2000/svg">
<path d="M37.0208 9.42675C35.7485 9.98958 34.3992 10.3592 33.0177 10.5235C34.4732 9.6522 35.5623 8.2815 36.0822 6.66675C34.7145 7.47935 33.2175 8.05128 31.6563 8.35768C30.3385 6.95176 28.4967 6.15505 26.5697 6.15723C22.721 6.15723 19.5995 9.27768 19.5995 13.128C19.5995 13.6743 19.6622 14.204 19.7793 14.7151C13.9841 14.4234 8.85013 11.6501 5.41131 7.43235C4.79216 8.49611 4.46676 9.7053 4.46841 10.9361C4.46841 13.3543 5.69934 15.4887 7.56916 16.7383C6.46229 16.7033 5.37981 16.4044 4.41198 15.8662C4.41091 15.8955 4.41091 15.9248 4.41091 15.9525C4.41091 19.3307 6.81366 22.1487 10.0033 22.7885C9.40468 22.9505 8.78721 23.0323 8.16704 23.0318C7.71663 23.0318 7.27953 22.9903 6.85466 22.9088C7.74219 25.6775 10.3148 27.6932 13.366 27.7485C10.8969 29.6863 7.84783 30.7377 4.70906 30.7332C4.15354 30.7337 3.59849 30.7008 3.04688 30.6352C6.23341 32.6837 9.94254 33.7708 13.7307 33.7668C26.5527 33.7668 33.5633 23.1458 33.5633 13.9352C33.5633 13.6338 33.556 13.3314 33.5427 13.0333C34.9072 12.0474 36.085 10.8261 37.0208 9.42675Z" fill="white"/>
</svg>
